<svg width="48" height="48" viewBox="0 0 48 48" fill="none" xmlns="http://www.w3.org/2000/svg">
  <!-- Background -->
  <rect width="48" height="48" rx="6" fill="#0F172A"/>

  <!-- $ Symbol -->
  <path d="M9 12V14H11V18H9V20H11V22H13V20H15V18H13V14H15V12H13V10H11V12H9Z" fill="#FFD700"/>

  <!-- B -->
  <path d="M17 12H21C22.1 12 23 12.9 23 14V15C23 15.6 22.6 16.1 22.1 16.5C22.6 16.9 23 17.4 23 18V19C23 20.1 22.1 21 21 21H17V12ZM19 15.5H21V14H19V15.5ZM19 19H21V17.5H19V19Z" fill="#FFD700"/>

  <!-- R -->
  <path d="M25 12H29C30.1 12 31 12.9 31 14V16C31 17.1 30.1 18 29 18H27L31 22H28.5L25 18V12ZM27 16H29V14H27V16Z" fill="#FFD700"/>

  <!-- R -->
  <path d="M33 12H37C38.1 12 39 12.9 39 14V16C39 17.1 38.1 18 37 18H35L39 22H36.5L33 18V12ZM35 16H37V14H35V16Z" fill="#FFD700"/>

  <!-- Bottom Rectangle -->
  <rect x="8" y="25" width="32" height="4" rx="1" fill="##FFD700" fill-opacity="0.6"/>

  <!-- Money Printer Lines -->
  <rect x="6" y="31" width="36" height="2" rx="1" fill="#FFD700" fill-opacity="0.5"/>
  <rect x="10" y="35" width="28" height="2" rx="1" fill="#FFD700" fill-opacity="0.4"/>
</svg>
